<?xml version="1.0" encoding="UTF-8"?>
<svg width="24px" height="24px" viewBox="0 0 24 24" version="1.1" xmlns="http://www.w3.org/2000/svg" xmlns:xlink="http://www.w3.org/1999/xlink">
    <g stroke="none" stroke-width="1" fill="none" fill-rule="evenodd">
        <path d="M17.21,9 L12.83,4.62 C12.64,4.43 12.35,4.43 12.16,4.62 L7.79,9 L11,9 L11,11.5 C11,12.33 10.33,13 9.5,13 C8.67,13 8,12.33 8,11.5 L8,9 L2.25,9 C1.83,9 1.5,9.33 1.5,9.75 C1.5,9.89 1.54,10.02 1.61,10.13 L5.02,15.23 C5.17,15.47 5.44,15.62 5.72,15.62 L18.31,15.62 C18.59,15.62 18.85,15.47 19,15.23 L22.39,10.13 C22.46,10.02 22.5,9.89 22.5,9.75 C22.5,9.33 22.17,9 21.75,9 L17.21,9 Z M14.58,17 L9.42,17 C9.01,17 8.84,17.48 9.15,17.75 L11.85,20.03 C11.94,20.1 12.06,20.1 12.15,20.03 L14.85,17.75 C15.16,17.48 14.99,17 14.58,17 Z" fill="#007AFF"></path>
    </g>
</svg>
