<?xml version="1.0" encoding="UTF-8"?>
<svg width="24px" height="24px" viewBox="0 0 24 24" version="1.1" xmlns="http://www.w3.org/2000/svg" xmlns:xlink="http://www.w3.org/1999/xlink">
    <title>后台管理</title>
    <g id="后台管理" stroke="none" stroke-width="1" fill="none" fill-rule="evenodd">
        <rect id="背景" fill-opacity="0" fill="#FFFFFF" x="0" y="0" width="24" height="24"></rect>
        <path d="M19,3 C20.1045695,3 21,3.8954305 21,5 L21,19 C21,20.1045695 20.1045695,21 19,21 L5,21 C3.8954305,21 3,20.1045695 3,19 L3,5 C3,3.8954305 3.8954305,3 5,3 L19,3 Z M19,5 L5,5 L5,19 L19,19 L19,5 Z" id="形状" fill="#FF6B6B" fill-rule="nonzero"></path>
        <path d="M7,8 C7.55228475,8 8,8.44771525 8,9 C8,9.55228475 7.55228475,10 7,10 C6.44771525,10 6,9.55228475 6,9 C6,8.44771525 6.44771525,8 7,8 Z M12,8 C12.5522847,8 13,8.44771525 13,9 C13,9.55228475 12.5522847,10 12,10 C11.4477153,10 11,9.55228475 11,9 C11,8.44771525 11.4477153,8 12,8 Z M17,8 C17.5522847,8 18,8.44771525 18,9 C18,9.55228475 17.5522847,10 17,10 C16.4477153,10 16,9.55228475 16,9 C16,8.44771525 16.4477153,8 17,8 Z" id="形状" fill="#FF6B6B" fill-rule="nonzero"></path>
        <path d="M7,12 L17,12 C17.5522847,12 18,12.4477153 18,13 L18,16 C18,16.5522847 17.5522847,17 17,17 L7,17 C6.44771525,17 6,16.5522847 6,16 L6,13 C6,12.4477153 6.44771525,12 7,12 Z" id="矩形" fill="#FF6B6B"></path>
    </g>
</svg>
