<?xml version="1.0" encoding="UTF-8"?>
<svg width="24px" height="24px" viewBox="0 0 24 24" version="1.1" xmlns="http://www.w3.org/2000/svg" xmlns:xlink="http://www.w3.org/1999/xlink">
    <g stroke="none" stroke-width="1" fill="none" fill-rule="evenodd">
        <path d="M7,14 C5.34,14 4,15.34 4,17 C4,18.31 3.165,19 2,19 C2.61,20.16 4.13,21 5.67,21 C7.76,21 9.5,19.26 9.5,17.17 C9.5,15.79 8.41,14.7 7.03,14.7 C7.02,14.7 7.01,14.7 7,14.7 L7,14 Z M18.33,2 C16.33,2 14.33,3 14.33,5 C14.33,6.08 14.92,7.1 15.7,8.04 C16.5,9 17.33,10 17.33,12 C17.33,14 15.33,15 15.33,15 C15.33,15 19.33,15 19.33,11 C19.33,9.66 18.67,8.66 18,7.66 C17.33,6.66 16.67,5.66 16.67,5 C16.67,4 17.33,3.66 18.33,3.66 C19,3.66 20,4 20,4 L20.33,2.66 C20.33,2.66 19.33,2 18.33,2 Z" fill="#007AFF"></path>
    </g>
</svg>
