<?xml version="1.0" encoding="UTF-8"?>
<svg width="24px" height="24px" viewBox="0 0 24 24" version="1.1" xmlns="http://www.w3.org/2000/svg" xmlns:xlink="http://www.w3.org/1999/xlink">
    <g stroke="none" stroke-width="1" fill="none" fill-rule="evenodd">
        <rect fill="#FFFFFF" x="0" y="0" width="24" height="24"></rect>
        <path d="M4,4 L9,4 C9.55228475,4 10,4.44771525 10,5 L10,10 C10,10.5522847 9.55228475,11 9,11 L4,11 C3.44771525,11 3,10.5522847 3,10 L3,5 C3,4.44771525 3.44771525,4 4,4 Z M15,4 L20,4 C20.5522847,4 21,4.44771525 21,5 L21,10 C21,10.5522847 20.5522847,11 20,11 L15,11 C14.4477153,11 14,10.5522847 14,10 L14,5 C14,4.44771525 14.4477153,4 15,4 Z M4,13 L9,13 C9.55228475,13 10,13.4477153 10,14 L10,19 C10,19.5522847 9.55228475,20 9,20 L4,20 C3.44771525,20 3,19.5522847 3,19 L3,14 C3,13.4477153 3.44771525,13 4,13 Z M15,13 L20,13 C20.5522847,13 21,13.4477153 21,14 L21,19 C21,19.5522847 20.5522847,20 20,20 L15,20 C14.4477153,20 14,19.5522847 14,19 L14,14 C14,13.4477153 14.4477153,13 15,13 Z" fill="#FFFFFF" fill-rule="nonzero"></path>
    </g>
</svg>
