<?xml version="1.0" encoding="UTF-8"?>
<svg width="24px" height="24px" viewBox="0 0 24 24" version="1.1" xmlns="http://www.w3.org/2000/svg" xmlns:xlink="http://www.w3.org/1999/xlink">
    <g stroke="none" stroke-width="1" fill="none" fill-rule="evenodd">
        <rect fill="#FFFFFF" x="0" y="0" width="24" height="24"></rect>
        <path d="M2,13 L22,13 L22,18 C22,19.1045695 21.1045695,20 20,20 L4,20 C2.8954305,20 2,19.1045695 2,18 L2,13 Z M2,6 L22,6 L22,11 L2,11 L2,6 Z M4,3 L20,3 C21.1045695,3 22,3.8954305 22,5 L22,6 L2,6 L2,5 C2,3.8954305 2.8954305,3 4,3 Z" fill="#FFFFFF" fill-rule="nonzero"></path>
        <path d="M14.5,15 C15.3284271,15 16,15.6715729 16,16.5 C16,17.3284271 15.3284271,18 14.5,18 C13.6715729,18 13,17.3284271 13,16.5 C13,15.6715729 13.6715729,15 14.5,15 Z M8.5,15 C9.32842712,15 10,15.6715729 10,16.5 C10,17.3284271 9.32842712,18 8.5,18 C7.67157288,18 7,17.3284271 7,16.5 C7,15.6715729 7.67157288,15 8.5,15 Z M14.5,8 C15.3284271,8 16,8.67157288 16,9.5 C16,10.3284271 15.3284271,11 14.5,11 C13.6715729,11 13,10.3284271 13,9.5 C13,8.67157288 13.6715729,8 14.5,8 Z M8.5,8 C9.32842712,8 10,8.67157288 10,9.5 C10,10.3284271 9.32842712,11 8.5,11 C7.67157288,11 7,10.3284271 7,9.5 C7,8.67157288 7.67157288,8 8.5,8 Z" fill="#FFFFFF" fill-rule="nonzero"></path>
    </g>
</svg>
