<?xml version="1.0" encoding="UTF-8"?>
<svg width="24px" height="24px" viewBox="0 0 24 24" version="1.1" xmlns="http://www.w3.org/2000/svg" xmlns:xlink="http://www.w3.org/1999/xlink">
    <g stroke="none" stroke-width="1" fill="none" fill-rule="evenodd">
        <rect fill="#FFFFFF" x="0" y="0" width="24" height="24"></rect>
        <path d="M3,13.5 L19,13.5 C19.5522847,13.5 20,13.9477153 20,14.5 L20,21.5 C20,22.0522847 19.5522847,22.5 19,22.5 L3,22.5 C2.44771525,22.5 2,22.0522847 2,21.5 L2,14.5 C2,13.9477153 2.44771525,13.5 3,13.5 Z M3,1.5 L9,1.5 C9.55228475,1.5 10,1.94771525 10,2.5 L10,10.5 C10,11.0522847 9.55228475,11.5 9,11.5 L3,11.5 C2.44771525,11.5 2,11.0522847 2,10.5 L2,2.5 C2,1.94771525 2.44771525,1.5 3,1.5 Z M13,1.5 L19,1.5 C19.5522847,1.5 20,1.94771525 20,2.5 L20,10.5 C20,11.0522847 19.5522847,11.5 19,11.5 L13,11.5 C12.4477153,11.5 12,11.0522847 12,10.5 L12,2.5 C12,1.94771525 12.4477153,1.5 13,1.5 Z" fill="#FFFFFF" fill-rule="nonzero"></path>
    </g>
</svg>
