<?xml version="1.0" encoding="UTF-8"?>
<svg width="24px" height="24px" viewBox="0 0 24 24" version="1.1" xmlns="http://www.w3.org/2000/svg" xmlns:xlink="http://www.w3.org/1999/xlink">
    <g stroke="none" stroke-width="1" fill="none" fill-rule="evenodd">
        <rect fill="#FFFFFF" x="0" y="0" width="24" height="24"></rect>
        <path d="M8,3 L8,3.5 C8,4.32842712 8.67157288,5 9.5,5 L14.5,5 C15.3284271,5 16,4.32842712 16,3.5 L16,3 L18,3 C19.1045695,3 20,3.8954305 20,5 L20,21 C20,22.1045695 19.1045695,23 18,23 L6,23 C4.8954305,23 4,22.1045695 4,21 L4,5 C4,3.8954305 4.8954305,3 6,3 L8,3 Z M8,18 L8,19 L16,19 L16,18 L8,18 Z M8,15 L8,16 L16,16 L16,15 L8,15 Z M8,12 L8,13 L16,13 L16,12 L8,12 Z M9.5,1 C8.67157288,1 8,1.67157288 8,2.5 L8,3.5 C8,4.32842712 8.67157288,5 9.5,5 L14.5,5 C15.3284271,5 16,4.32842712 16,3.5 L16,2.5 C16,1.67157288 15.3284271,1 14.5,1 L9.5,1 Z" fill="#FFFFFF" fill-rule="nonzero"></path>
    </g>
</svg>
