<?xml version="1.0" encoding="UTF-8"?>
<svg width="24px" height="24px" viewBox="0 0 24 24" version="1.1" xmlns="http://www.w3.org/2000/svg" xmlns:xlink="http://www.w3.org/1999/xlink">
    <g stroke="none" stroke-width="1" fill="none" fill-rule="evenodd">
        <rect fill="#FFFFFF" x="0" y="0" width="24" height="24"></rect>
        <path d="M21,5.5 L21,17.5 C21,18.3284271 20.3284271,19 19.5,19 L4.5,19 C3.67157288,19 3,18.3284271 3,17.5 L3,5.5 C3,4.67157288 3.67157288,4 4.5,4 L19.5,4 C20.3284271,4 21,4.67157288 21,5.5 Z M12,7 C9.23857625,7 7,9.23857625 7,12 C7,14.7614237 9.23857625,17 12,17 C14.7614237,17 17,14.7614237 17,12 C17,9.23857625 14.7614237,7 12,7 Z" fill="#FFFFFF" fill-rule="nonzero"></path>
    </g>
</svg>
