<?xml version="1.0" encoding="UTF-8"?>
<svg width="24px" height="24px" viewBox="0 0 24 24" version="1.1" xmlns="http://www.w3.org/2000/svg" xmlns:xlink="http://www.w3.org/1999/xlink">
    <g stroke="none" stroke-width="1" fill="none" fill-rule="evenodd">
        <path d="M20,2 L4,2 C2.9,2 2,2.9 2,4 L2,16 C2,17.1 2.9,18 4,18 L8,18 L8,20 L16,20 L16,18 L20,18 C21.1,18 22,17.1 22,16 L22,4 C22,2.9 21.1,2 20,2 Z M20,16 L4,16 L4,4 L20,4 L20,16 Z M6,10 L10,10 L10,6 L6,6 L6,10 Z M11,6 L18,6 L18,8 L11,8 L11,6 Z M11,9 L18,9 L18,11 L11,11 L11,9 Z M6,12 L10,12 L10,14 L6,14 L6,12 Z M11,12 L18,12 L18,14 L11,14 L11,12 Z" fill="#007AFF"></path>
    </g>
</svg>
