<?xml version="1.0" encoding="UTF-8"?>
<svg width="24px" height="24px" viewBox="0 0 24 24" version="1.1" xmlns="http://www.w3.org/2000/svg" xmlns:xlink="http://www.w3.org/1999/xlink">
    <g stroke="none" stroke-width="1" fill="none" fill-rule="evenodd">
        <rect fill="#FFFFFF" x="0" y="0" width="24" height="24"></rect>
        <path d="M9.67696823,4 C10.0335854,2.84926189 11.0181585,2 12.1817254,2 C13.3452923,2 14.3298654,2.84926189 14.6864826,4 L19,4 C19.5522847,4 20,4.44771525 20,5 C20,5.55228475 19.5522847,6 19,6 L14.6864826,6 C14.3298654,7.15073811 13.3452923,8 12.1817254,8 C11.0181585,8 10.0335854,7.15073811 9.67696823,6 L5,6 C4.44771525,6 4,5.55228475 4,5 C4,4.44771525 4.44771525,4 5,4 L9.67696823,4 Z M9.67696823,14 C10.0335854,12.8492619 11.0181585,12 12.1817254,12 C13.3452923,12 14.3298654,12.8492619 14.6864826,14 L19,14 C19.5522847,14 20,14.4477153 20,15 C20,15.5522847 19.5522847,16 19,16 L14.6864826,16 C14.3298654,17.1507381 13.3452923,18 12.1817254,18 C11.0181585,18 10.0335854,17.1507381 9.67696823,16 L5,16 C4.44771525,16 4,15.5522847 4,15 C4,14.4477153 4.44771525,14 5,14 L9.67696823,14 Z" fill="#FFFFFF" fill-rule="nonzero"></path>
    </g>
</svg>
